<svg width="62" height="62" viewBox="5 -67 62 62" fill="#808080" xmlns="http://www.w3.org/2000/svg">
    <path
        d="M36-65.9531C19.4063-65.9531 6.0469-52.5938 6.0469-36C6.0469-19.4063 19.4063-6.0469 36-6.0469C52.5938-6.0469 65.9531-19.4063 65.9531-36C65.9531-52.5938 52.5938-65.9531 36-65.9531ZM33.0469-12.2344C21.0938-13.6406 11.9531-23.7656 11.9531-36C11.9531-37.8281 12.2344-39.6563 12.6563-41.3438L27-27L27-24.0469C27-20.6719 29.6719-18 33.0469-18L33.0469-12.2344ZM53.7188-19.8281C52.8750-22.2188 50.7656-24.0469 47.9531-24.0469L45-24.0469L45-33.0469C45-34.5938 43.5938-36 42.0469-36L24.0469-36L24.0469-42.0469L29.9531-42.0469C31.6406-42.0469 33.0469-43.3125 33.0469-45L33.0469-51.0469L38.9531-51.0469C42.3281-51.0469 45-53.7188 45-56.9531L45-58.2188C53.8594-54.7031 60.0469-45.9844 60.0469-36C60.0469-29.8125 57.6563-24.0469 53.7188-19.8281Z" />
</svg>